<?xml version="1.0" encoding="iso-8859-1"?>
<!-- Generator: Adobe Illustrator 19.0.0, SVG Export Plug-In . SVG Version: 6.00 Build 0)  -->
<svg version="1.1" id="Layer_1" xmlns="http://www.w3.org/2000/svg" xmlns:xlink="http://www.w3.org/1999/xlink" x="0px" y="0px"
	 viewBox="0 0 485.138 485.138" style="enable-background:new 0 0 485.138 485.138;" xml:space="preserve">
<g>
	<g>
		<polygon style="fill:#AFB6BB;" points="329.164,272.26 418.233,400.914 373.698,400.914 373.698,475.139 284.63,475.139 
			284.63,400.914 240.095,400.914 284.63,336.586 		"/>
		<polygon style="fill:#F4661E;" points="240.095,10 329.164,138.656 284.63,138.656 284.63,336.586 240.095,400.914 
			284.63,400.914 284.63,475.139 195.561,475.139 195.561,306.897 240.095,306.897 195.561,242.568 195.561,138.656 
			151.026,138.656 		"/>
		<polygon style="fill:#FFD248;" points="195.561,242.568 240.095,306.897 195.561,306.897 195.561,475.139 106.492,475.139 
			106.492,306.897 61.957,306.897 151.026,178.242 		"/>
	</g>
	<g>
		<path style="fill:#231F20;" d="M383.698,410.914h34.535c3.72,0,7.132-2.064,8.857-5.359c1.727-3.294,1.481-7.274-0.636-10.333
			l-89.069-128.654c-1.867-2.697-4.94-4.308-8.222-4.308c-3.281,0-6.355,1.61-8.222,4.308l-26.313,38.007V148.656h34.534
			c3.72,0,7.132-2.064,8.857-5.359c1.727-3.294,1.482-7.274-0.636-10.333L248.316,4.308C246.449,1.61,243.376,0,240.095,0
			c-3.282,0-6.354,1.61-8.222,4.308l-89.068,128.656c-2.117,3.059-2.362,7.039-0.636,10.334c1.727,3.294,5.139,5.358,8.858,5.358
			h34.534v61.9l-26.313-38.007c-1.868-2.697-4.94-4.308-8.222-4.308c-3.281,0-6.354,1.61-8.222,4.308L53.735,301.204
			c-2.117,3.059-2.362,7.039-0.636,10.333c1.727,3.295,5.139,5.359,8.858,5.359h34.535v148.242H32.268v20h415.655v-20h-64.225
			V410.914z M329.164,289.828l69.983,101.086h-25.449c-5.522,0-10,4.478-10,10v64.225H294.63v-64.225c0-5.522-4.478-10-10-10
			h-25.449L329.164,289.828z M195.561,128.656h-25.449l69.983-101.088l69.983,101.088H284.63c-5.522,0-10,4.478-10,10v194.807
			l-42.757,61.759c-2.117,3.059-2.362,7.039-0.636,10.333c1.727,3.295,5.139,5.359,8.858,5.359h34.535v54.225h-69.069V316.897
			h34.534c3.72,0,7.132-2.064,8.857-5.359c1.727-3.294,1.481-7.274-0.636-10.333l-42.756-61.759v-100.79
			C205.561,133.134,201.084,128.656,195.561,128.656z M106.492,296.897H81.043l69.983-101.086l69.983,101.086H195.56
			c-5.523,0-10,4.478-10,10v158.242h-69.068V306.897C116.492,301.374,112.015,296.897,106.492,296.897z"/>
		<polygon style="fill:#231F20;" points="334.112,192.982 334.112,212.982 348.854,212.982 348.854,227.725 368.854,227.725 
			368.854,212.982 383.595,212.982 383.595,192.982 368.854,192.982 368.854,178.242 348.854,178.242 348.854,192.982 		"/>
		<polygon style="fill:#231F20;" points="368.646,99.068 388.646,99.068 388.646,84.328 403.389,84.328 403.389,64.328 
			388.646,64.328 388.646,49.586 368.646,49.586 368.646,64.328 353.905,64.328 353.905,84.328 368.646,84.328 		"/>
		<polygon style="fill:#231F20;" points="126.182,69.379 146.182,69.379 146.182,54.639 160.923,54.639 160.923,34.639 
			146.182,34.639 146.182,19.896 126.182,19.896 126.182,34.639 111.44,34.639 111.44,54.639 126.182,54.639 		"/>
		<polygon style="fill:#231F20;" points="47.009,198.035 67.009,198.035 67.009,183.293 81.75,183.293 81.75,163.293 
			67.009,163.293 67.009,148.553 47.009,148.553 47.009,163.293 32.268,163.293 32.268,183.293 47.009,183.293 		"/>
		<polygon style="fill:#231F20;" points="42.061,405.861 62.061,405.861 62.061,391.121 76.802,391.121 76.802,371.121 
			62.061,371.121 62.061,356.379 42.061,356.379 42.061,371.121 27.319,371.121 27.319,391.121 42.061,391.121 		"/>
		<polygon style="fill:#231F20;" points="443.078,287 443.078,272.26 423.078,272.26 423.078,287 408.337,287 408.337,307 
			423.078,307 423.078,321.742 443.078,321.742 443.078,307 457.819,307 457.819,287 		"/>
	</g>
</g>
<g>
</g>
<g>
</g>
<g>
</g>
<g>
</g>
<g>
</g>
<g>
</g>
<g>
</g>
<g>
</g>
<g>
</g>
<g>
</g>
<g>
</g>
<g>
</g>
<g>
</g>
<g>
</g>
<g>
</g>
</svg>
