<?xml version="1.0" encoding="iso-8859-1"?>
<!-- Generator: Adobe Illustrator 19.0.0, SVG Export Plug-In . SVG Version: 6.00 Build 0)  -->
<svg version="1.1" id="Capa_1" xmlns="http://www.w3.org/2000/svg" xmlns:xlink="http://www.w3.org/1999/xlink" x="0px" y="0px"
	 viewBox="0 0 512.52 512.52" style="enable-background:new 0 0 512.52 512.52;" xml:space="preserve">
<path style="fill:#344A5E;" d="M267.993,476.483c0,0-4.267-3.2-4.267-5.333c0-2.133-1.067-7.467,3.2-9.6
	c3.2-2.133,7.467-2.133,7.467-2.133l21.333,1.067c0,0,2.133,8.533,6.4,12.8c4.267,3.2,20.267,16,18.133,20.267
	c-2.133,5.333-5.333,4.267-5.333,4.267s-16-1.067-21.333-4.267c-5.333-3.2-10.667-10.667-10.667-10.667L267.993,476.483z"/>
<path style="fill:#425A6B;" d="M225.327,474.35c0,0,0,5.333-2.133,8.533c-2.133,3.2-6.4,6.4-6.4,6.4v-6.4L225.327,474.35z"/>
<path style="fill:#344A5E;" d="M186.927,499.95v-3.2c0,0,0-5.333,3.2-9.6c4.267-4.267,7.467-10.667,8.533-12.8
	c1.067-3.2,2.133-9.6,5.333-11.733c3.2-2.133,11.733,0,11.733,0l9.6,3.2c0,0,2.133,9.6,0,12.8c-3.2,3.2-3.2,4.267-4.267,7.467
	c-1.067,3.2-2.133,11.733-2.133,11.733s-1.067,5.333-5.333,7.467s-10.667,5.333-13.867,4.267
	C196.527,508.483,186.927,503.15,186.927,499.95z"/>
<path style="fill:#425A6B;" d="M201.86,462.616c0,0-8.533-22.4-8.533-29.867s4.267-56.533,6.4-68.267
	c1.067-10.667-3.2-68.267-3.2-68.267s-4.267-29.867-6.4-36.267c0,0,3.2-11.733,6.4-18.133c1.067-2.133,3.2-6.4,5.333-9.6h-3.2h3.2
	c2.133-4.267,5.333-7.467,5.333-7.467l81.067,7.467h10.667c0,0,11.733,14.933,13.867,21.333c2.133,6.4,1.067,17.067,1.067,17.067
	s-4.267,8.533-6.4,18.133c-2.133,9.6-4.267,39.467-5.333,48c-1.067,8.533-9.6,49.067-8.533,68.267
	c2.133,19.2,1.067,56.533,1.067,56.533s-10.667,9.6-22.4,7.467c-11.733-2.133-10.667-8.533-10.667-8.533s-4.267-44.8-4.267-52.267
	s-2.133-54.4-1.067-67.2c0-12.8-5.333-34.133-5.333-34.133s-9.6,41.6-9.6,45.867c-1.067,4.267-11.733,96-12.8,103.467
	c-2.133,7.467-4.267,17.067-4.267,17.067C213.593,474.35,207.193,469.016,201.86,462.616z"/>
<path style="fill:#FFD15C;" d="M279.727,27.416c0,0,0,27.733-4.267,38.4v26.667l-38.4-6.4l1.067-14.933V60.483l-2.133-22.4
	c0,0-5.333-20.267,4.267-26.667c8.533-6.4,29.867-3.2,33.067-2.133C278.66,10.35,280.793,26.35,279.727,27.416"/>
<path style="fill:#F5B54C;" d="M264.793,83.95c0,0,0,3.2-5.333,5.333l-22.4-4.267l1.067-14.933v-7.467c0,0,7.467,9.6,14.933,10.667
	c7.467,2.133,17.067-2.133,22.4-8.533c0,0-6.4,12.8-17.067,14.933C246.66,82.883,264.793,83.95,264.793,83.95z"/>
<path style="fill:#56BFEB;" d="M249.86,87.15h4.267h4.267l20.267-1.067l28.8,80l-1.067,57.6l-7.467,6.4c0,0-71.467,6.4-94.933-6.4
	c-23.467-11.733-21.333-34.133-20.267-35.2c0-1.067,43.733-104.533,43.733-104.533S240.26,73.283,249.86,87.15z"/>
<path style="fill:#F26F5A;" d="M299.993,224.75c-27.733,6.4-55.467,6.4-83.2,0c-6.4,3.2-12.8,6.4-19.2,10.667
	c40.533,8.533,82.133,8.533,122.667,0C312.793,231.15,306.393,227.95,299.993,224.75z"/>
<path style="fill:#425A6B;" d="M261.593,99.95c0-4.267-8.533-4.267-8.533,0l-11.733,66.133l14.933,14.933l14.933-14.933
	L261.593,99.95z"/>
<g>
	<path style="fill:#344A5E;" d="M261.593,99.95c-3.2-1.067-5.333-1.067-8.533,0c-3.2-3.2-4.267-7.467-4.267-11.733
		c5.333-2.133,10.667-2.133,16,0C264.793,92.483,263.727,96.75,261.593,99.95z"/>
	<path style="fill:#344A5E;" d="M237.06,41.283c0,0-2.133-12.8-1.067-16c1.067-4.267,1.067-10.667,6.4-10.667
		c4.267,0,13.867,2.133,21.333-1.067c7.467-4.267,13.867,4.267,13.867,5.333c0,1.067,1.067,13.867,0,20.267h1.067l4.267-3.2
		c0,0,2.133-22.4-7.467-29.867c-10.667-7.467-21.333-7.467-28.8-3.2c-8.533,3.2-12.8,11.733-13.867,13.867
		c-1.067,2.133,2.133,24.533,2.133,24.533H237.06z"/>
</g>
<g>
	
		<ellipse transform="matrix(-0.2154 -0.9765 0.9765 -0.2154 241.5472 278.9056)" style="fill:#FFD15C;" cx="232.818" cy="42.417" rx="8.533" ry="3.2"/>
	
		<ellipse transform="matrix(-0.2154 0.9765 -0.9765 -0.2154 382.0982 -222.8551)" style="fill:#FFD15C;" cx="280.576" cy="42.072" rx="8.533" ry="3.2"/>
</g>
<g>
	<path style="fill:#8AD6F7;" d="M275.46,71.15c-3.2,5.333-9.6,10.667-17.067,16l16,16l4.267-14.933c0-1.067,0-3.2,0-4.267
		L275.46,71.15z"/>
	<path style="fill:#8AD6F7;" d="M238.127,70.083l-5.333,12.8l4.267,19.2l17.067-16C247.727,80.75,241.327,74.35,238.127,70.083z"/>
</g>
<path style="fill:#CED6E0;" d="M301.06,239.683c0,0,10.667,34.133,29.867,21.333l-10.667-21.333H301.06z"/>
<path style="fill:#FFD15C;" d="M322.393,249.283l-4.267,11.733c0,0-1.067,1.067-1.067,3.2c0,2.133-5.333,9.6-5.333,9.6
	l-8.533-23.467l9.6-19.2L322.393,249.283z"/>
<path style="fill:#F3F3F3;" d="M325.593,104.216c0,0,8.533,18.133,10.667,28.8c2.133,10.667,6.4,52.267,6.4,57.6
	s-5.333,42.667-6.4,50.133c-1.067,7.467-4.267,20.267-4.267,20.267s-5.333-11.733-29.867-21.333l8.533-42.667
	c3.2-14.933,2.133-30.933-3.2-45.867l0,0C307.46,152.216,305.327,107.416,325.593,104.216z"/>
<path style="fill:#E8EAE8;" d="M269.06,144.75l-6.4,45.867l-1.067,64c0,12.8,9.6,22.4,22.4,21.333l33.067-1.067
	c0,0-7.467-83.2-3.2-115.2c4.267-30.933,7.467-50.133,11.733-56.533l-48-24.533l-7.467,49.067L269.06,144.75z"/>
<path style="fill:#F3F3F3;" d="M276.527,77.55l19.2,18.133l-13.867,8.533l16,10.667c0,0-30.933,40.533-36.267,74.667
	C262.66,190.616,265.86,108.483,276.527,77.55z"/>
<path style="fill:#CED6E0;" d="M211.46,239.683c0,0-10.667,34.133-29.867,21.333l10.667-21.333H211.46z"/>
<path style="fill:#FFD15C;" d="M190.127,249.283l4.267,11.733c0,0,1.067,1.067,1.067,3.2c0,2.133,5.333,9.6,5.333,9.6l8.533-23.467
	l-9.6-19.2L190.127,249.283z"/>
<path style="fill:#F3F3F3;" d="M186.927,104.216c0,0-8.533,18.133-10.667,28.8c-2.133,10.667-6.4,52.267-6.4,57.6
	s5.333,42.667,6.4,50.133c1.067,7.467,4.267,20.267,4.267,20.267s5.333-11.733,29.867-21.333l-8.533-42.667
	c-3.2-14.933-2.133-30.933,3.2-45.867l0,0C205.06,152.216,207.193,107.416,186.927,104.216z"/>
<path style="fill:#E8EAE8;" d="M243.46,144.75l6.4,45.867l1.067,64c0,12.8-9.6,22.4-22.4,21.333l-33.067-1.067
	c0,0,7.467-83.2,3.2-115.2c-4.267-30.933-7.467-50.133-11.733-56.533l48-24.533l7.467,49.067L243.46,144.75z"/>
<path style="fill:#F3F3F3;" d="M235.993,77.55l-19.2,18.133l13.867,8.533l-16,10.667c0,0,30.933,40.533,36.267,74.667
	C249.86,190.616,246.66,108.483,235.993,77.55z"/>
<g>
	<path style="fill:#425A6B;" d="M186.927,496.75c0,0,1.067,4.267,4.267,7.467c2.133,2.133,6.4,4.267,10.667,4.267
		s12.8-5.333,13.867-6.4c1.067-2.133,2.133-4.267,2.133-4.267s0,5.333-6.4,9.6c-6.4,4.267-10.667,6.4-16,4.267
		C190.127,508.483,186.927,502.083,186.927,496.75z"/>
	<path style="fill:#425A6B;" d="M262.66,471.15c0,0,2.133,2.133,6.4,4.267c4.267,1.067,10.667,5.333,12.8,7.467
		c2.133,2.133,6.4,8.533,9.6,9.6c3.2,1.067,8.533,4.267,14.933,4.267c6.4,1.067,10.667-1.067,11.733-3.2c0,0-1.067,7.467-6.4,6.4
		c-6.4,0-19.2-2.133-21.333-5.333c-2.133-2.133-3.2-5.333-4.267-7.467c-1.067-3.2-3.2-3.2-5.333-4.267
		C278.66,483.95,263.727,482.883,262.66,471.15z"/>
</g>
<path style="fill:#48B9A5;" d="M286.127,149.016c-6.4-2.133-9.6-9.6-7.467-16l7.467-22.4c2.133-6.4,9.6-9.6,16-7.467
	c6.4,2.133,9.6,9.6,7.467,16l-5.333,14.933c-2.133,6.4-9.6,9.6-16,7.467l1.067-2.133c5.333,2.133,10.667-1.067,12.8-6.4
	l5.333-14.933c2.133-5.333-1.067-10.667-6.4-12.8c-5.333-2.133-10.667,1.067-12.8,6.4l-7.467,22.4
	c-2.133,5.333,1.067,10.667,6.4,12.8L286.127,149.016z"/>
<g>
	<path style="fill:#425A6B;" d="M289.327,140.483c0,1.067-2.133,2.133-3.2,2.133s-1.067-2.133-1.067-3.2
		c0-1.067,1.067-2.133,2.133-2.133C289.327,138.35,290.393,139.416,289.327,140.483z"/>
	<path style="fill:#425A6B;" d="M286.127,147.95c0-1.067,2.133-2.133,3.2-2.133c1.067,0,1.067,2.133,1.067,3.2
		c0,1.067-1.067,2.133-2.133,2.133C286.127,150.083,286.127,149.016,286.127,147.95z"/>
	<path style="fill:#425A6B;" d="M287.193,117.016l2.133-4.267c2.133-5.333,7.467-7.467,11.733-5.333
		c5.333,2.133,7.467,7.467,5.333,11.733l-2.133,4.267l3.2,1.067l2.133-4.267c2.133-6.4-1.067-13.867-8.533-17.067
		c-6.4-2.133-13.867,1.067-17.067,8.533l-2.133,4.267L287.193,117.016z"/>
	<path style="fill:#425A6B;" d="M303.193,105.283h-3.2c0-13.867-11.733-21.333-21.333-25.6l-2.133-2.133l-1.067-2.133
		C287.193,78.616,303.193,87.15,303.193,105.283z"/>
</g>
<path style="fill:#48B9A5;" d="M231.727,127.683c0,7.467-6.4,11.733-11.733,10.667c-4.267-1.067-7.467-5.333-7.467-10.667
	s3.2-9.6,7.467-10.667C225.327,115.95,231.727,120.216,231.727,127.683z"/>
<path style="fill:#F3F3F3;" d="M228.527,127.683c0,5.333-4.267,8.533-8.533,7.467c-3.2-1.067-5.333-4.267-5.333-7.467
	s2.133-7.467,5.333-7.467C224.26,119.15,228.527,122.35,228.527,127.683z"/>
<path style="fill:#425A6B;" d="M237.06,73.283l-2.133,4.267c-12.8,8.533-13.867,34.133-13.867,44.8l0,0
	c2.133,1.067,3.2,3.2,3.2,5.333c0,3.2-2.133,6.4-5.333,5.333c-2.133,0-4.267-3.2-4.267-5.333c0-2.133,1.067-4.267,3.2-5.333
	C218.927,109.55,219.993,79.683,237.06,73.283z"/>
<g>
</g>
<g>
</g>
<g>
</g>
<g>
</g>
<g>
</g>
<g>
</g>
<g>
</g>
<g>
</g>
<g>
</g>
<g>
</g>
<g>
</g>
<g>
</g>
<g>
</g>
<g>
</g>
<g>
</g>
</svg>
