<?xml version="1.0" encoding="utf-8"?>
<!-- Generator: Adobe Illustrator 19.0.0, SVG Export Plug-In . SVG Version: 6.00 Build 0)  -->
<svg version="1.1" id="Layer_1" xmlns="http://www.w3.org/2000/svg" xmlns:xlink="http://www.w3.org/1999/xlink" x="0px" y="0px"
	 viewBox="0 0 145 72" style="enable-background:new 0 0 145 72;" xml:space="preserve">
<style type="text/css">
	.st0{fill:#33A9E0;}
</style>
<g id="XMLID_2_">
	<g id="XMLID_139_">
		<path id="XMLID_140_" class="st0" d="M57,31.2c-2.8,0-4,1.5-4.8,2.7h-0.1v-2.3h-4v22.5h4.2v-8.5l0.1,0c0.5,0.9,1.5,2.5,4.5,2.5
			c4.8,0,6.8-4.2,6.8-8.5C63.7,34,60.5,31.2,57,31.2z M55.7,44.6c-2.7,0-3.5-2.9-3.5-4.9c0-2.5,0.9-4.9,3.6-4.9
			c2.9,0,3.6,2.6,3.6,5.2C59.4,42.4,58.3,44.6,55.7,44.6z M83,47.6h4.4v-16H81l-3.8,10.9h-0.1l-3.8-10.9h-6.4v16h4.4v-9.8
			c0-0.9-0.1-1.9-0.1-1.9h0.1l4.2,11.7h3.4L83,35.9h0.1c0,0-0.1,1-0.1,1.9V47.6z M44.7,44.5v-8.7c0-4-4.3-4.6-6.7-4.6
			c-3.3,0-6.6,0.6-7.4,5h4.3c0.2-0.8,0.8-1.6,2.6-1.6c1.1,0,2.9,0.1,2.9,1.9c0,0.8-0.7,1.3-2.5,1.4c-4.2,0.3-7.8,1.8-7.8,5.5
			c0,3.3,2.5,4.7,5.1,4.7c3,0,4.4-1.3,5.4-2.3c0.1,0.9,0.2,1.1,0.4,1.9h4.7V47C45.1,46.8,44.7,46.4,44.7,44.5z M40.4,41.9
			c0,1.9-2,3.2-3.9,3.2c-0.9,0-2.1-0.4-2.1-1.9c0-1.7,1.3-2.1,3-2.4c1.8-0.3,2.5-0.5,3-0.9V41.9z M98.2,37.9
			c-4.2,0.3-7.8,1.8-7.8,5.5c0,3.3,2.5,4.7,5.1,4.7c3,0,4.4-1.3,5.4-2.3c0.1,0.9,0.2,1.1,0.4,1.9h4.7V47c-0.5-0.2-1-0.6-1-2.5v-8.7
			c0-4-4.3-4.6-6.7-4.6c-3.3,0-6.6,0.6-7.4,5h4.3c0.2-0.8,0.8-1.6,2.6-1.6c1.1,0,2.9,0.1,2.9,1.9C100.7,37.2,100,37.7,98.2,37.9z
			 M100.7,41.9c0,1.9-2,3.2-3.9,3.2c-0.9,0-2.1-0.4-2.1-1.9c0-1.7,1.3-2.1,3-2.4c1.8-0.3,2.5-0.5,3-0.9V41.9z M17,26.5v-2.4h-4.7
			v2.4C8.1,26.5,1,28.7,1,35.9c0,7.2,7.1,9.2,11.3,9.2v2.5H17v-2.5c4.2,0,11.3-2.1,11.3-9.2C28.3,28.7,21.2,26.5,17,26.5z
			 M12.3,41.2c-2.5,0-6.4-0.9-6.4-5.3c0-4.4,3.9-5.4,6.4-5.4V41.2z M17,41.2V30.5c2.5,0,6.4,1,6.4,5.4C23.4,40.3,19.5,41.2,17,41.2z
			 M144,39.6c0-17.3-14.1-31.4-31.4-31.4c0,0,0,0,0,0V1h-4.2v7.5C97.3,10,88,17.3,83.7,27.3h4.4c3.9-7.7,11.4-13.4,20.3-14.8v35.2
			h4.2v-7.2L132,59c-5,5-11.8,8.1-19.4,8.1c-10.7,0-20-6.2-24.5-15.1h-4.4C88.5,63.1,99.6,71,112.6,71c8.7,0,16.6-3.6,22.3-9.3
			l3.1,2.9h6.1l-6.4-6C141.6,53.3,144,46.7,144,39.6z M134.6,55.9l-17.4-16.3l9.1-12.3h-5.1L112.6,39V12.2c0,0,0,0,0,0
			c15.1,0,27.4,12.3,27.4,27.4C140,45.7,138,51.3,134.6,55.9z"/>
	</g>
</g>
</svg>
